<svg height="116pt" viewBox="0 0 485.29 116" width="485pt" xmlns="http://www.w3.org/2000/svg">
<g transform="translate(4 112)">
<path d="m-4 4v-116h485.29v116z" fill="#fff"/>
<path d="m237.2-108h-83v36h83z" fill="none" stroke="#000"/>
<text font-family="monospace" font-size="14" text-anchor="middle" x="195.7" y="-86.3">textwrap</text>
<ellipse cx="37.7" cy="-18" fill="none" rx="37.89" ry="18" stroke="#000" stroke-dasharray="5 2"/>
<text font-family="monospace" font-size="14" text-anchor="middle" x="37.7" y="-14.3">smawk</text>
<g stroke="#000">
<path d="m157.05-71.88c-25.33 11.22-58.22 25.79-83.05 36.8" fill="none" stroke-dasharray="1 5"/>
<path d="m75.13-31.76-10.56.86 7.72-7.26z"/>
<ellipse cx="195.7" cy="-18" fill="none" rx="102.08" ry="18" stroke-dasharray="5 2"/>
</g>
<text font-family="monospace" font-size="14" text-anchor="middle" x="195.7" y="-14.3">unicode-linebreak</text>
<path d="m195.7-71.7v25.59" fill="none" stroke="#000" stroke-dasharray="1 5"/>
<path d="m199.2-46.1-3.5 10-3.5-10z" stroke="#000"/>
<ellipse cx="396.7" cy="-18" fill="none" rx="80.69" ry="18" stroke="#000" stroke-dasharray="5 2"/>
<text font-family="monospace" font-size="14" text-anchor="middle" x="396.7" y="-14.3">unicode-width</text>
<path d="m237.34-74.5c31.4 10.94 74.63 25.99 108.14 37.66" fill="none" stroke="#000" stroke-dasharray="1 5"/>
<path d="m346.81-40.08 8.29 6.59-10.59.02z" stroke="#000"/>
</g>
</svg>
